<svg  viewBox="0 0 16 16" fill="none" xmlns="http://www.w3.org/2000/svg">
<path d="M11.1662 2.37301V1.33301C11.1662 1.05967 10.9395 0.833008 10.6662 0.833008C10.3928 0.833008 10.1662 1.05967 10.1662 1.33301V2.33301H5.83283V1.33301C5.83283 1.05967 5.60616 0.833008 5.33283 0.833008C5.0595 0.833008 4.83283 1.05967 4.83283 1.33301V2.37301C3.03283 2.53967 2.1595 3.61301 2.02617 5.20634C2.01284 5.39967 2.17284 5.55967 2.3595 5.55967H13.6395C13.8328 5.55967 13.9928 5.39301 13.9728 5.20634C13.8395 3.61301 12.9662 2.53967 11.1662 2.37301Z" fill="currentColor"/>
<path opacity="0.35" d="M13.3333 6.55957C13.7 6.55957 14 6.85957 14 7.22624V11.3329C14 13.3329 13 14.6662 10.6667 14.6662H5.33333C3 14.6662 2 13.3329 2 11.3329V7.22624C2 6.85957 2.3 6.55957 2.66667 6.55957H13.3333Z" fill="currentColor"/>
<path d="M5.66667 9.99993C5.58 9.99993 5.49333 9.97994 5.41333 9.94661C5.33333 9.91327 5.26001 9.86659 5.19334 9.80659C5.13334 9.73993 5.08666 9.6666 5.05332 9.5866C5.01999 9.5066 5 9.41993 5 9.33326C5 9.2466 5.01999 9.15993 5.05332 9.07993C5.08666 8.99993 5.13334 8.9266 5.19334 8.85994C5.26001 8.79994 5.33333 8.75326 5.41333 8.71992C5.57333 8.65326 5.76 8.65326 5.92 8.71992C6 8.75326 6.07333 8.79994 6.13999 8.85994C6.19999 8.9266 6.24668 8.99993 6.28001 9.07993C6.31334 9.15993 6.33333 9.2466 6.33333 9.33326C6.33333 9.41993 6.31334 9.5066 6.28001 9.5866C6.24668 9.6666 6.19999 9.73993 6.13999 9.80659C6.07333 9.86659 6 9.91327 5.92 9.94661C5.84 9.97994 5.75333 9.99993 5.66667 9.99993Z" fill="currentColor"/>
<path d="M8.00065 10C7.91398 10 7.82731 9.98006 7.74731 9.94672C7.66731 9.91339 7.59399 9.86671 7.52732 9.80671C7.40732 9.68004 7.33398 9.50672 7.33398 9.33338C7.33398 9.16005 7.40732 8.98672 7.52732 8.86005C7.59399 8.80005 7.66731 8.75337 7.74731 8.72004C7.90731 8.64671 8.09399 8.64671 8.25399 8.72004C8.33399 8.75337 8.40731 8.80005 8.47398 8.86005C8.59398 8.98672 8.66732 9.16005 8.66732 9.33338C8.66732 9.50672 8.59398 9.68004 8.47398 9.80671C8.40731 9.86671 8.33399 9.91339 8.25399 9.94672C8.17399 9.98006 8.08732 10 8.00065 10Z" fill="currentColor"/>
<path d="M5.66667 12.3329C5.58 12.3329 5.49333 12.3129 5.41333 12.2796C5.33333 12.2463 5.26001 12.1996 5.19334 12.1396C5.07334 12.0129 5 11.8396 5 11.6663C5 11.4929 5.07334 11.3196 5.19334 11.1929C5.26001 11.1329 5.33333 11.0863 5.41333 11.0529C5.57333 10.9863 5.76 10.9863 5.92 11.0529C6 11.0863 6.07333 11.1329 6.13999 11.1929C6.25999 11.3196 6.33333 11.4929 6.33333 11.6663C6.33333 11.8396 6.25999 12.0129 6.13999 12.1396C6.07333 12.1996 6 12.2463 5.92 12.2796C5.84 12.3129 5.75333 12.3329 5.66667 12.3329Z" fill="currentColor"/>
</svg>
