<?xml version="1.0" standalone="no"?>
<!DOCTYPE svg PUBLIC "-//W3C//DTD SVG 20010904//EN"
 "http://www.w3.org/TR/2001/REC-SVG-20010904/DTD/svg10.dtd">
<svg version="1.0" xmlns="http://www.w3.org/2000/svg"
 width="376.000000pt" height="244.000000pt" viewBox="0 0 376.000000 244.000000"
 preserveAspectRatio="xMidYMid meet">

<g transform="translate(0.000000,244.000000) scale(0.100000,-0.100000)"
fill="#2563eb" stroke="none">
<path d="M2205 2104 l-20 -58 -57 -12 -58 -11 -36 43 c-19 24 -41 44 -47 44
-7 0 -35 -14 -64 -30 l-52 -30 20 -57 19 -57 -40 -41 c-22 -22 -40 -46 -40
-51 0 -6 15 -19 34 -29 l35 -19 51 48 c28 26 76 59 108 74 51 24 69 27 162 27
95 0 111 -3 163 -29 154 -75 247 -253 219 -415 -23 -128 -112 -245 -227 -297
-106 -49 -257 -41 -354 19 -33 20 -34 20 -48 1 -41 -54 -35 -65 50 -102 l47
-21 0 -55 c0 -65 8 -72 89 -78 l54 -3 19 56 19 56 56 12 57 11 41 -46 40 -47
40 21 c80 41 80 40 59 105 l-18 57 40 41 c41 43 41 43 130 24 30 -7 31 -5 58
55 15 34 26 63 24 64 -70 47 -88 69 -88 106 0 65 13 86 69 106 56 20 56 18 40
97 l-12 57 -61 0 -61 0 -29 54 -29 54 31 50 c35 57 32 67 -33 117 l-37 27 -45
-32 c-43 -31 -47 -32 -82 -20 -72 25 -81 35 -81 95 0 29 -4 56 -8 59 -4 2 -35
8 -67 11 l-60 7 -20 -58z"/>
<path d="M1560 2096 c-24 -59 -19 -56 -118 -70 -17 -3 -31 8 -58 45 -20 27
-38 49 -40 49 -3 0 -30 -12 -61 -26 -53 -25 -55 -28 -48 -58 19 -89 19 -89
-24 -131 l-41 -39 -48 13 c-71 20 -72 20 -105 -38 l-31 -54 46 -41 47 -41 -12
-59 -12 -59 -58 -20 -58 -19 7 -57 c3 -31 11 -62 16 -68 6 -8 33 -13 62 -13
l52 0 27 -56 28 -56 -37 -49 -36 -50 23 -27 c13 -15 34 -37 47 -48 l24 -22 50
31 50 31 54 -29 53 -29 3 -60 c3 -65 1 -63 89 -80 l36 -6 23 54 c23 58 27 61
100 70 45 6 45 5 81 -43 l35 -50 57 26 c61 28 63 31 46 99 l-12 46 52 52 c28
28 51 54 51 58 0 4 -16 16 -35 28 l-34 21 -35 -39 c-73 -80 -218 -132 -331
-117 -74 9 -183 64 -233 119 -86 93 -125 222 -103 337 26 133 122 254 239 300
45 19 77 23 152 24 87 0 101 -3 158 -31 l63 -31 24 31 c24 30 25 31 6 46 -10
8 -33 23 -50 32 -29 16 -31 20 -31 77 0 66 7 60 -91 76 -36 7 -36 6 -59 -49z"/>
<path d="M1487 1824 c-24 -11 -39 -25 -43 -41 -11 -42 3 -137 25 -181 29 -58
18 -77 -54 -92 -62 -13 -91 -37 -100 -84 -4 -17 -9 -39 -11 -48 -5 -17 11 -18
235 -18 l241 0 -7 33 c-14 76 -28 95 -84 111 -29 9 -58 16 -65 16 -8 0 -18 9
-24 20 -8 16 -5 30 15 67 20 39 25 62 25 120 0 65 -2 74 -24 88 -36 24 -86 27
-129 9z"/>
<path d="M2160 1822 c-35 -17 -35 -18 -38 -91 -2 -61 1 -81 21 -120 31 -60 26
-78 -26 -91 -81 -21 -92 -27 -109 -56 -9 -16 -20 -46 -23 -66 l-7 -38 241 0
242 0 -7 38 c-3 20 -14 50 -23 66 -16 29 -27 35 -108 56 -51 13 -57 31 -27 85
24 45 38 144 24 181 -11 27 -58 54 -97 54 -15 0 -44 -8 -63 -18z"/>
<path d="M1770 1735 c0 -13 9 -16 48 -13 26 2 47 8 47 13 0 6 -21 11 -47 13
-39 3 -48 0 -48 -13z"/>
<path d="M1897 1744 c-17 -17 11 -24 94 -24 72 0 89 3 89 15 0 12 -16 15 -88
15 -49 0 -92 -3 -95 -6z"/>
<path d="M1660 1670 c0 -5 7 -10 15 -10 8 0 15 5 15 10 0 6 -7 10 -15 10 -8 0
-15 -4 -15 -10z"/>
<path d="M1710 1672 c0 -10 307 -25 321 -16 30 18 -7 24 -156 24 -91 0 -165
-4 -165 -8z"/>
<path d="M1838 1613 c-145 -6 -102 -23 58 -23 112 0 145 3 142 13 -5 13 -55
16 -200 10z"/>
<path d="M1720 1535 c0 -13 19 -15 143 -13 86 2 142 7 142 13 0 6 -56 11 -142
13 -124 2 -143 0 -143 -13z"/>
<path d="M2030 1535 c0 -8 7 -15 15 -15 8 0 15 7 15 15 0 8 -7 15 -15 15 -8 0
-15 -7 -15 -15z"/>
<path d="M586 761 c-4 -5 5 -79 19 -165 14 -85 25 -158 25 -161 0 -4 12 -5 27
-3 27 3 29 6 49 113 22 117 25 117 45 0 17 -100 25 -117 52 -113 20 3 24 13
44 138 12 74 22 150 22 168 1 29 -2 33 -21 30 -21 -3 -24 -11 -35 -112 -6 -59
-14 -110 -16 -112 -2 -2 -12 46 -23 108 -16 93 -22 113 -38 116 -10 2 -22 0
-27 -5 -4 -4 -16 -54 -26 -110 -9 -57 -20 -97 -24 -90 -4 6 -10 44 -13 82 -10
108 -15 125 -36 125 -10 0 -21 -4 -24 -9z"/>
<path d="M940 600 l0 -170 70 0 c68 0 70 1 70 25 0 23 -4 25 -45 25 l-45 0 0
49 0 50 38 3 c29 2 37 7 37 23 0 16 -8 21 -37 23 -38 3 -38 4 -38 48 l0 44 45
0 c41 0 45 2 45 25 0 24 -2 25 -70 25 l-70 0 0 -170z"/>
<path d="M1300 759 c-13 -6 -28 -15 -32 -22 -11 -18 -10 -255 2 -276 12 -24
68 -34 108 -20 35 12 45 35 40 90 -2 26 -8 34 -23 34 -16 0 -21 -8 -25 -40 -4
-35 -8 -40 -30 -40 l-25 0 0 115 0 115 25 0 c21 0 26 -6 30 -35 4 -27 10 -36
28 -38 20 -3 22 1 22 40 0 52 -7 63 -43 77 -34 13 -44 13 -77 0z"/>
<path d="M1505 758 c-3 -8 -4 -83 -3 -168 l3 -155 63 -3 c61 -3 62 -2 62 23 0
23 -4 25 -40 25 l-39 0 -3 142 c-3 127 -5 143 -21 146 -9 2 -19 -3 -22 -10z"/>
<path d="M1750 763 c-34 -12 -40 -36 -40 -164 0 -103 3 -131 16 -143 32 -33
96 -33 128 0 13 12 16 40 16 142 0 70 -4 132 -8 139 -15 24 -77 39 -112 26z
m65 -163 l0 -115 -25 0 c-25 0 -25 0 -28 104 -3 121 0 134 30 129 22 -3 23 -6
23 -118z"/>
<path d="M1945 758 c-3 -8 -4 -83 -3 -168 3 -147 4 -155 23 -155 18 0 20 8 25
105 l5 105 34 -95 c37 -104 51 -126 75 -117 14 6 16 28 14 169 -3 155 -4 163
-23 163 -18 0 -20 -8 -23 -100 l-4 -100 -37 100 c-30 82 -40 101 -59 103 -12
2 -24 -3 -27 -10z"/>
<path d="M2200 600 l0 -171 68 3 c59 3 67 5 67 23 0 16 -8 21 -42 23 l-43 3 0
50 0 49 35 0 c31 0 35 3 35 25 0 22 -4 25 -35 25 -35 0 -35 0 -35 44 l0 45 43
3 c34 2 42 7 42 23 0 18 -8 20 -67 23 l-68 3 0 -171z"/>
<path d="M2497 762 c-3 -4 10 -57 29 -117 21 -68 34 -128 34 -162 0 -51 2 -54
23 -51 20 3 23 10 29 78 3 41 18 111 32 155 32 99 32 105 1 105 -19 0 -26 -7
-31 -27 -3 -16 -12 -50 -19 -78 -12 -49 -12 -49 -20 -20 -26 108 -31 120 -52
123 -12 2 -24 -1 -26 -6z"/>
<path d="M2752 754 c-21 -14 -22 -22 -22 -154 0 -132 1 -140 22 -154 29 -20
87 -20 116 0 21 14 22 22 22 154 0 132 -1 140 -22 154 -12 9 -38 16 -58 16
-20 0 -46 -7 -58 -16z m83 -154 l0 -115 -25 0 c-25 0 -25 0 -28 104 -3 121 0
134 30 129 22 -3 23 -6 23 -118z"/>
<path d="M2970 616 c0 -149 1 -155 22 -170 12 -9 38 -16 58 -16 20 0 46 7 58
16 21 15 22 21 22 170 l0 155 -22 -3 c-22 -3 -23 -7 -28 -143 l-5 -140 -25 0
-25 0 -5 140 c-5 136 -6 140 -27 143 l-23 3 0 -155z"/>
</g>
</svg>
