<svg  viewBox="0 0 32 32" fill="none" xmlns="http://www.w3.org/2000/svg">
<path d="M24.9196 15.3733C24.1596 15.1733 23.2662 15.0667 22.1996 15.0667C20.7196 15.0667 20.1729 15.4267 19.4129 16C19.3729 16.0267 19.3329 16.0667 19.2929 16.1067L18.0263 17.4533C16.9729 18.5867 15.0396 18.5867 13.9729 17.4533L12.7062 16.12C12.6662 16.0667 12.6262 16.0267 12.5862 16C11.8129 15.4267 11.2663 15.0667 9.79958 15.0667C8.73292 15.0667 7.83958 15.16 7.07958 15.3733C3.90625 16.2266 3.90625 18.7467 3.90625 20.96V22.2C3.90625 25.5466 3.90625 29.3333 11.0396 29.3333H20.9596C25.6929 29.3333 28.0929 26.9333 28.0929 22.2V20.96C28.0929 18.7467 28.0929 16.2266 24.9196 15.3733Z" fill="currentColor"/>
<path opacity="0.35" d="M19.7201 2.66669H12.2801C6.38672 2.66669 6.38672 5.80002 6.38672 8.56002V16.28C6.38672 16.5734 6.52005 16.84 6.74672 17.0134C6.97339 17.1867 7.28005 17.2534 7.56005 17.1734C8.16005 17.0134 8.90672 16.9334 9.80005 16.9334C10.6934 16.9334 10.8801 17.04 11.4134 17.44L12.6267 18.72C13.4934 19.6534 14.7334 20.1867 16.0134 20.1867C17.2934 20.1867 18.5201 19.6534 19.4001 18.72L20.6134 17.44C21.1467 17.04 21.3334 16.9334 22.2267 16.9334C23.1201 16.9334 23.8667 17.0134 24.4667 17.1734C24.7467 17.2534 25.04 17.1867 25.28 17.0134C25.5067 16.84 25.6401 16.56 25.6401 16.28V8.56002C25.6134 5.80002 25.6134 2.66669 19.7201 2.66669Z" fill="currentColor"/>
<path d="M18.0667 13.2133H13.9333C13.4133 13.2133 13 12.8 13 12.28C13 11.76 13.4133 11.3467 13.9333 11.3467H18.0667C18.5867 11.3467 19 11.76 19 12.28C19 12.7867 18.5733 13.2133 18.0667 13.2133Z" fill="currentColor"/>
<path d="M19.1066 9.49331H12.8933C12.3733 9.49331 11.96 9.07998 11.96 8.55998C11.96 8.03998 12.3733 7.62665 12.8933 7.62665H19.0933C19.6133 7.62665 20.0266 8.03998 20.0266 8.55998C20.0266 9.06665 19.6133 9.49331 19.1066 9.49331Z" fill="currentColor"/>
</svg>
