<svg viewBox="0 0 16 16" fill="none" xmlns="http://www.w3.org/2000/svg">
<path opacity="0.35" d="M7.86065 9.47301L5.68065 11.653C5.44065 11.4397 5.20732 11.2197 4.98065 10.993C4.29398 10.2997 3.67398 9.57301 3.12065 8.81301C2.57398 8.05301 2.13398 7.29301 1.81398 6.53967C1.49398 5.77968 1.33398 5.05301 1.33398 4.35967C1.33398 3.90634 1.41398 3.47301 1.57398 3.07301C1.73398 2.66634 1.98732 2.29301 2.34065 1.95967C2.76732 1.53967 3.23398 1.33301 3.72732 1.33301C3.91398 1.33301 4.10065 1.37301 4.26732 1.45301C4.44065 1.53301 4.59398 1.65301 4.71398 1.82634L6.26065 4.00634C6.38065 4.17301 6.46732 4.32634 6.52732 4.47301C6.58732 4.61301 6.62065 4.75301 6.62065 4.87967C6.62065 5.03967 6.57398 5.19967 6.48065 5.35301C6.39398 5.50634 6.26732 5.66634 6.10732 5.82634L5.60065 6.35301C5.52732 6.42634 5.49398 6.51301 5.49398 6.61967C5.49398 6.67301 5.50065 6.71967 5.51398 6.77301C5.53398 6.82634 5.55398 6.86634 5.56732 6.90634C5.68732 7.12634 5.89398 7.41301 6.18732 7.75968C6.48732 8.10634 6.80732 8.45967 7.15398 8.81301C7.39398 9.04634 7.62732 9.27301 7.86065 9.47301Z" fill="currentColor"/>
<path d="M14.6471 12.2204C14.6471 12.407 14.6137 12.6004 14.5471 12.787C14.5271 12.8404 14.5071 12.8937 14.4804 12.947C14.3671 13.187 14.2204 13.4137 14.0271 13.627C13.7004 13.987 13.3404 14.247 12.9337 14.4137C12.9271 14.4137 12.9204 14.4204 12.9137 14.4204C12.5204 14.5804 12.0937 14.667 11.6337 14.667C10.9537 14.667 10.2271 14.507 9.46039 14.1804C8.69372 13.8537 7.92706 13.4137 7.16706 12.8604C6.90706 12.667 6.64706 12.4737 6.40039 12.267L8.58039 10.087C8.76706 10.227 8.93372 10.3337 9.07372 10.407C9.10706 10.4204 9.14706 10.4404 9.19372 10.4604C9.24706 10.4804 9.30039 10.487 9.36039 10.487C9.47372 10.487 9.56039 10.447 9.63372 10.3737L10.1404 9.87369C10.3071 9.70702 10.4671 9.58035 10.6204 9.50035C10.7737 9.40702 10.9271 9.36035 11.0937 9.36035C11.2204 9.36035 11.3537 9.38702 11.5004 9.44702C11.6471 9.50702 11.8004 9.59369 11.9671 9.70702L14.1737 11.2737C14.3471 11.3937 14.4671 11.5337 14.5404 11.7004C14.6071 11.867 14.6471 12.0337 14.6471 12.2204Z" fill="currentColor"/>
</svg>
