<svg  viewBox="0 0 24 24" fill="none" xmlns="http://www.w3.org/2000/svg">
<path d="M12 12C14.7614 12 17 9.76142 17 7C17 4.23858 14.7614 2 12 2C9.23858 2 7 4.23858 7 7C7 9.76142 9.23858 12 12 12Z" fill="currentColor"/>
<path opacity="0.35" d="M12.0002 14.5C6.99018 14.5 2.91016 17.86 2.91016 22C2.91016 22.28 3.13016 22.5 3.41016 22.5H20.5902C20.8702 22.5 21.0902 22.28 21.0902 22C21.0902 17.86 17.0102 14.5 12.0002 14.5Z" fill="currentColor"/>
<path d="M21.4291 14.7403C20.5291 13.8403 19.8191 14.1303 19.2091 14.7403L15.669 18.2804C15.529 18.4204 15.3991 18.6803 15.3691 18.8703L15.1791 20.2203C15.1091 20.7103 15.4491 21.0503 15.9391 20.9803L17.289 20.7903C17.479 20.7603 17.7491 20.6303 17.8791 20.4903L21.419 16.9503C22.039 16.3503 22.3291 15.6403 21.4291 14.7403Z" fill="currentColor"/>
</svg>
