<svg  viewBox="0 0 20 20" fill="none" xmlns="http://www.w3.org/2000/svg">
<path opacity="0.35" d="M17.5758 17.917C17.5758 18.1503 17.3924 18.3337 17.1591 18.3337H2.84245C2.60911 18.3337 2.42578 18.1503 2.42578 17.917C2.42578 14.467 5.82578 11.667 10.0008 11.667C10.8591 11.667 11.6925 11.7836 12.4591 12.0086C11.9675 12.592 11.6674 13.3503 11.6674 14.167C11.6674 14.792 11.8424 15.3837 12.1508 15.8837C12.3174 16.167 12.5341 16.4253 12.7841 16.642C13.3674 17.1753 14.1424 17.5003 15.0008 17.5003C15.9341 17.5003 16.7758 17.117 17.3758 16.5003C17.5091 16.9503 17.5758 17.4253 17.5758 17.917Z" fill="currentColor"/>
<path d="M17.4744 11.9414C16.8744 11.258 15.9827 10.833 14.9993 10.833C14.066 10.833 13.216 11.2164 12.6077 11.8414C12.0244 12.4414 11.666 13.2663 11.666 14.1663C11.666 14.7913 11.841 15.383 12.1493 15.883C12.316 16.1663 12.5327 16.4247 12.7827 16.6413C13.366 17.1747 14.141 17.4997 14.9993 17.4997C16.216 17.4997 17.2744 16.8497 17.8494 15.883C18.0244 15.5997 18.1577 15.2747 18.2327 14.9413C18.2994 14.6913 18.3327 14.433 18.3327 14.1663C18.3327 13.3163 18.0077 12.533 17.4744 11.9414ZM16.2493 14.7747H15.6243V15.4247C15.6243 15.7663 15.341 16.0497 14.9993 16.0497C14.6577 16.0497 14.3743 15.7663 14.3743 15.4247V14.7747H13.7493C13.4077 14.7747 13.1243 14.4913 13.1243 14.1497C13.1243 13.808 13.4077 13.5247 13.7493 13.5247H14.3743V12.933C14.3743 12.5914 14.6577 12.308 14.9993 12.308C15.341 12.308 15.6243 12.5914 15.6243 12.933V13.5247H16.2493C16.591 13.5247 16.8743 13.808 16.8743 14.1497C16.8743 14.4913 16.591 14.7747 16.2493 14.7747Z" fill="currentColor"/>
<path d="M10.0007 10.0003C12.3018 10.0003 14.1673 8.13485 14.1673 5.83366C14.1673 3.53247 12.3018 1.66699 10.0007 1.66699C7.69946 1.66699 5.83398 3.53247 5.83398 5.83366C5.83398 8.13485 7.69946 10.0003 10.0007 10.0003Z" fill="currentColor"/>
</svg>
